HIERARCHY
ROOT Hips
{
 OFFSET 0.000000 0.000000 0.000000
 CHANNELS 6 Xposition Yposition Zposition Yrotation Xrotation Zrotation
 JOINT Chest
 {
  OFFSET 0.000000 10.354800 0.006500
  CHANNELS 3 Yrotation Xrotation Zrotation
  JOINT Chest2
  {
   OFFSET 0.000000 10.435800 -0.013200
   CHANNELS 3 Yrotation Xrotation Zrotation
   JOINT Chest3
   {
    OFFSET 0.000000 10.393700 0.000000
    CHANNELS 3 Yrotation Xrotation Zrotation
    JOINT Chest4
    {
     OFFSET 0.000000 10.383100 0.000000
     CHANNELS 3 Yrotation Xrotation Zrotation
     JOINT Neck
     {
      OFFSET 0.000000 15.694000 0.000000
      CHANNELS 3 Yrotation Xrotation Zrotation
      JOINT Head
      {
       OFFSET 0.000000 9.711000 -0.028000
       CHANNELS 3 Yrotation Xrotation Zrotation
       End Site
       {
        OFFSET 0.000000 18.578700 -0.014800
       }
      }
     }
     JOINT RightCollar
     {
      OFFSET -3.157200 10.367500 0.000000
      CHANNELS 3 Yrotation Xrotation Zrotation
      JOINT RightShoulder
      {
       OFFSET -14.482500 0.000000 0.000000
       CHANNELS 3 Yrotation Xrotation Zrotation
       JOINT RightElbow
       {
        OFFSET 0.000000 -31.707800 0.000000
        CHANNELS 3 Yrotation Xrotation Zrotation
        JOINT RightWrist
        {
         OFFSET 0.000000 -25.659300 0.000000
         CHANNELS 3 Yrotation Xrotation Zrotation
         End Site
         {
          OFFSET 0.000000 -18.994300 0.000000
         }
        }
       }
      }
     }
     JOINT LeftCollar
     {
      OFFSET 3.157200 10.367500 0.000000
      CHANNELS 3 Yrotation Xrotation Zrotation
      JOINT LeftShoulder
      {
       OFFSET 14.482500 0.000000 0.000000
       CHANNELS 3 Yrotation Xrotation Zrotation
       JOINT LeftElbow
       {
        OFFSET 0.000000 -31.707800 0.000000
        CHANNELS 3 Yrotation Xrotation Zrotation
        JOINT LeftWrist
        {
         OFFSET 0.000000 -25.659300 0.000000
         CHANNELS 3 Yrotation Xrotation Zrotation
         End Site
         {
          OFFSET 0.000000 -18.994300 0.000000
         }
        }
       }
      }
     }
    }
   }
  }
 }
 JOINT RightHip
 {
  OFFSET -8.365600 -0.032100 -0.003200
  CHANNELS 3 Yrotation Xrotation Zrotation
  JOINT RightKnee
  {
   OFFSET 0.000000 -43.980000 0.003100
   CHANNELS 3 Yrotation Xrotation Zrotation
   JOINT RightAnkle
   {
    OFFSET 0.000000 -42.882800 0.005200
    CHANNELS 3 Yrotation Xrotation Zrotation
    JOINT RightToe
    {
     OFFSET 0.000000 -4.915500 10.826300
     CHANNELS 3 Yrotation Xrotation Zrotation
     End Site
     {
      OFFSET 0.000000 -1.517500 6.175900
     }
    }
   }
  }
 }
 JOINT LeftHip
 {
  OFFSET 8.365600 -0.032100 -0.003200
  CHANNELS 3 Yrotation Xrotation Zrotation
  JOINT LeftKnee
  {
   OFFSET 0.000000 -43.980000 0.003100
   CHANNELS 3 Yrotation Xrotation Zrotation
   JOINT LeftAnkle
   {
    OFFSET 0.000000 -42.882800 0.005200
    CHANNELS 3 Yrotation Xrotation Zrotation
    JOINT LeftToe
    {
     OFFSET 0.000000 -4.915500 10.826300
     CHANNELS 3 Yrotation Xrotation Zrotation
     End Site
     {
      OFFSET 0.000000 -1.517500 6.175900
     }
    }
   }
  }
 }
}
MOTION
Frames: 5
Frame Time: 0.008333
-0.086979 126.719802 40.643535 171.402247 -23.499264 -2.046745 0.668674 15.945677 2.837563 0.024464 1.558227 0.298971 0.052520 2.658523 0.453676 0.550809 14.146130 2.459304 3.201315 18.474627 -4.611230 4.509115 -6.016625 -5.695197 3.505362 5.410195 -5.470792 9.504848 -1.780817 -7.260059 -75.060809 -60.184496 114.955865 -21.310674 -5.826258 -25.824398 -2.464559 7.823055 -0.309834 5.041644 -0.211197 -0.664617 78.314516 -56.481588 -124.226676 26.382707 -1.053505 36.652119 9.018018 -58.669295 -3.191887 -94.950625 78.010553 -88.065530 3.833320 6.404462 -17.603184 0.012123 -0.014169 0.005503 -13.858006 -58.396299 0.137240 119.599231 85.160655 113.115378 -4.740801 -23.582113 0.742316 0.009335 0.003621 0.004239
-0.085090 126.714077 40.637604 171.381798 -23.392825 -2.081638 0.704723 15.888423 2.836527 0.030965 1.536783 0.307764 0.056372 2.641612 0.451711 0.572880 14.097276 2.449040 3.190613 18.495418 -4.580990 4.497340 -6.023853 -5.736511 3.497504 5.419257 -5.438887 9.515478 -1.857277 -7.431430 -75.235242 -60.218257 115.045789 -21.305961 -5.824513 -25.813242 -2.476207 7.828872 -0.307570 5.028052 -0.229246 -0.705002 78.292128 -56.526741 -124.179004 26.391238 -1.103592 36.619946 8.966383 -58.773420 -3.144504 -94.978764 78.033766 -88.087018 3.893822 6.391511 -17.627735 0.017789 -0.013427 0.008075 -13.945487 -58.491636 0.278538 119.880161 85.129443 113.365174 -4.764359 -23.599507 0.778510 -0.000768 0.007296 -0.000349
-0.085536 126.708854 40.629507 171.371472 -23.295301 -2.108100 0.721328 15.810848 2.848887 0.031676 1.546135 0.286236 0.068298 2.637888 0.410932 0.600309 14.040215 2.492840 3.182057 18.510958 -4.564513 4.490986 -6.038270 -5.770294 3.509515 5.413198 -5.450436 9.514780 -1.932400 -7.571383 -75.403497 -60.248888 115.119360 -21.299088 -5.836811 -25.843291 -2.478405 7.829587 -0.311246 5.018820 -0.236805 -0.753253 78.387117 -56.518950 -124.245508 26.379339 -1.081567 36.631341 8.919555 -58.865884 -3.112332 -94.979469 78.055655 -88.079093 3.853538 6.384963 -17.634087 0.015062 -0.010006 0.006838 -14.023118 -58.580180 0.387277 120.019190 85.128441 113.498661 -4.770320 -23.598775 0.784974 0.000040 0.009862 0.000018
-0.086994 126.703836 40.620213 171.360223 -23.203509 -2.128947 0.738763 15.739463 2.856958 0.038627 1.578321 0.239977 0.067920 2.594264 0.446536 0.616327 14.007834 2.493856 3.171515 18.472253 -4.636957 4.486336 -6.019129 -5.719004 3.545705 5.368720 -5.518048 9.491235 -1.987700 -7.658445 -75.559535 -60.282348 115.174503 -21.296074 -5.852072 -25.904055 -2.476937 7.823630 -0.319264 5.020236 -0.234150 -0.808084 78.479915 -56.520085 -124.317671 26.363145 -1.015152 36.664788 8.851861 -58.946649 -3.072052 -94.919499 78.086568 -88.024921 3.778550 6.380570 -17.625994 0.001939 -0.000776 0.000880 -14.104170 -58.662677 0.509150 120.195095 85.118838 113.647227 -4.808982 -23.607937 0.810037 -0.000002 0.009849 -0.000001
-0.086155 126.698429 40.611979 171.346120 -23.108212 -2.162555 0.764886 15.723108 2.828547 0.040163 1.535508 0.264775 0.070269 2.560200 0.481634 0.621754 13.997271 2.494275 3.168910 18.463146 -4.650656 4.484695 -6.022459 -5.721324 3.565651 5.348438 -5.555379 9.483223 -2.078684 -7.800244 -75.702145 -60.318139 115.208178 -21.298784 -5.860229 -25.978999 -2.471551 7.809650 -0.336307 5.030055 -0.229821 -0.873143 78.532859 -56.539824 -124.360032 26.349860 -0.974121 36.681104 8.780819 -59.037839 -3.011393 -94.871634 78.108065 -87.974194 3.777748 6.381992 -17.640773 0.001689 0.000013 0.000767 -14.240709 -58.747201 0.701841 120.471776 85.128179 113.876381 -4.843833 -23.602980 0.834548 0.006807 0.010682 0.003091
